<svg width="287" height="43" viewBox="0 0 287 43" fill="none" xmlns="http://www.w3.org/2000/svg">
<g clip-path="url(#clip0_53_713)">
<path d="M2.28374 21.1544C2.18992 21.0518 2.0492 21.0005 1.86403 21.0005C1.83934 21.0005 1.81712 21.0029 1.78996 21.0029C1.74552 20.998 1.70108 20.9956 1.65911 20.9956C1.50603 20.9956 1.38506 21.0395 1.29864 21.1275C1.20729 21.2179 1.16285 21.3547 1.16779 21.5257C1.17767 21.8896 1.4295 22.1657 1.75046 22.1681H1.75293C2.09611 22.1681 2.37509 21.8994 2.40225 21.5428C2.41213 21.3791 2.37262 21.2472 2.28374 21.1519V21.1544ZM1.76033 21.6234C1.76033 21.6234 1.7307 21.5965 1.7233 21.5452L1.82699 21.5501H1.84181C1.82699 21.5941 1.7949 21.6234 1.76033 21.6234ZM21.966 41.2339C21.9092 40.8748 21.6599 40.6427 21.3315 40.6427C21.0031 40.6427 20.7538 40.8699 20.7118 41.2339V41.2608C20.734 41.6296 20.9414 41.8519 21.2969 41.8861C21.3093 41.8885 21.3266 41.8885 21.3389 41.8885C21.5068 41.8885 21.6944 41.7957 21.8253 41.6443C21.9364 41.5172 21.9858 41.3707 21.966 41.2363V41.2339ZM21.4056 41.2852C21.3759 41.3218 21.3389 41.3365 21.3512 41.3389C21.3068 41.3365 21.2871 41.3267 21.2871 41.3267C21.2846 41.3243 21.2722 41.3023 21.2698 41.2632C21.2772 41.2168 21.2945 41.1948 21.2994 41.1924C21.2994 41.1899 21.3117 41.1875 21.334 41.1875C21.3488 41.1875 21.3883 41.1875 21.413 41.2779C21.413 41.2803 21.4105 41.2803 21.408 41.2827L21.4056 41.2852Z" fill="#4491BA"/>
<path d="M43.1842 17.5444C42.7991 15.3582 42.0855 13.2671 41.056 11.3227C40.0363 9.40269 38.713 7.63657 37.1181 6.07809C35.5873 4.58312 33.8616 3.33731 31.9802 2.37241C29.7039 1.20722 27.272 0.462172 24.7512 0.159269C23.8649 0.0517877 22.9662 -0.00195312 22.0848 -0.00195312C20.8256 -0.00195312 19.5591 0.107971 18.3222 0.325377C15.6705 0.791946 13.1596 1.74951 10.8611 3.1712C8.17241 4.83717 5.94544 6.99168 4.24435 9.57857C2.13836 12.781 0.985375 16.3035 0.810081 20.0678C0.141003 20.5002 -0.142923 21.2135 0.0669356 21.9683C0.279263 22.7255 0.901432 23.2116 1.67667 23.2312C1.70383 23.2336 1.72605 23.2336 1.75321 23.2336C2.6124 23.2336 3.25925 22.7695 3.48639 21.9927C3.69378 21.2892 3.42467 20.5539 2.80744 20.1045C2.8741 18.8684 3.04693 17.6886 3.32345 16.5893C4.29867 12.7395 6.28615 9.46376 9.23899 6.85245C12.5572 3.91624 16.5396 2.27959 21.0725 1.99379C21.4676 1.96936 21.8675 1.95714 22.2576 1.95714C24.4648 1.95714 26.6622 2.35043 28.7904 3.12967C31.9407 4.28021 34.6269 6.1245 36.7774 8.60635C39.8536 12.1581 41.4387 16.3621 41.4856 21.0913C41.4757 21.9194 41.4461 22.8965 41.298 23.8541C40.9548 26.0599 40.2857 28.1143 39.3105 29.9512C37.6464 33.0755 35.2837 35.5843 32.2839 37.4114C29.3731 39.1849 26.1807 40.1376 22.7958 40.2353C22.4798 39.7663 21.991 39.5073 21.4058 39.5073C21.3096 39.5073 21.2108 39.5147 21.1145 39.5293C20.3072 39.6466 19.6628 40.311 19.5838 41.1098C19.5122 41.8255 20.0035 42.5974 20.6997 42.8661C20.9318 42.9541 21.1664 42.998 21.3984 42.998C21.9638 42.998 22.4774 42.722 22.8107 42.2383C22.823 42.2359 22.8403 42.2359 22.86 42.2335C24.1118 42.1406 25.403 42.0405 26.6819 41.7644C29.4718 41.1538 32.0617 40.0325 34.385 38.4252C36.7304 36.7983 38.7006 34.7464 40.2413 32.3207C41.9028 29.707 42.9447 26.7952 43.3472 23.6636C43.599 21.6654 43.5471 19.6061 43.1867 17.5469L43.1842 17.5444ZM1.75074 22.171H1.74827C1.42731 22.1686 1.17795 21.8926 1.16561 21.5286C1.16067 21.3576 1.20511 21.2208 1.29646 21.1304C1.38287 21.0425 1.50385 20.9985 1.65692 20.9985C1.69889 20.9985 1.74333 21.0009 1.78778 21.0058C1.81493 21.0058 1.83715 21.0034 1.86184 21.0034C2.04701 21.0034 2.18527 21.0547 2.28156 21.1573C2.37044 21.2525 2.40994 21.3845 2.40007 21.5481C2.37044 21.9048 2.09145 22.1735 1.75074 22.1735V22.171ZM21.8256 41.6448C21.6947 41.7962 21.5071 41.889 21.3392 41.889C21.3268 41.889 21.3096 41.889 21.2972 41.8866C20.9417 41.8524 20.7343 41.6301 20.7121 41.2612V41.2344C20.754 40.8704 20.9911 40.6432 21.3318 40.6432C21.6725 40.6432 21.9095 40.8753 21.9663 41.2344C21.9885 41.3687 21.9367 41.5153 21.8256 41.6423V41.6448Z" fill="#4491BA"/>
<path d="M39.5299 21.9654C39.046 28.4631 35.9475 33.29 30.3233 36.3166C27.7976 37.6772 24.9509 38.3954 22.0919 38.3954C19.4057 38.3954 16.7121 37.7627 14.3025 36.5633C11.836 35.3395 9.66828 33.5172 8.03139 31.2943C5.90564 28.4118 4.71562 25.0335 4.67859 21.7846C4.67859 14.2413 8.84119 7.87793 15.5419 5.16401C17.3861 4.41897 19.2897 4.00126 21.2006 3.93286C21.4994 3.45163 21.9956 3.16827 22.5511 3.16827C22.724 3.16827 22.9017 3.19759 23.0745 3.24889C23.7831 3.45896 24.2473 4.06965 24.2522 4.80248C24.2572 5.53776 23.8103 6.15822 23.1116 6.3854C22.9437 6.43914 22.7659 6.46845 22.5882 6.46845C22.0351 6.46845 21.5389 6.20707 21.2451 5.76982C16.4702 6.09471 12.5742 8.16617 9.65594 11.9231C8.06348 13.9726 7.07098 16.3616 6.70557 19.0194C6.21426 22.6102 6.92037 26.0008 8.8091 29.1031C10.5102 31.8903 12.9273 33.9691 15.9912 35.2833C17.9392 36.1163 19.9686 36.5389 22.0129 36.5389C22.8425 36.5389 23.6893 36.468 24.5337 36.3313C29.0666 35.5887 32.654 33.2754 35.197 29.4524C36.661 27.2539 37.4906 24.7232 37.6609 21.9336C37.0511 21.533 36.7993 20.8075 37.024 20.0942C37.2363 19.4127 37.8906 18.9339 38.609 18.9339C39.3447 18.9363 40.0237 19.4444 40.2212 20.1455C40.4212 20.8417 40.1373 21.5721 39.5274 21.9605L39.5299 21.9654Z" fill="#1C1B1A"/>
<path d="M23.3708 33.5196C23.3215 33.2045 23.1042 33.0042 22.8178 33.0018C22.524 33.0018 22.3166 33.1996 22.2771 33.5172V33.5416C22.2944 33.8616 22.4771 34.0571 22.7857 34.0864C22.798 34.0888 22.8129 34.0888 22.8252 34.0888C22.9733 34.0888 23.1338 34.0082 23.2474 33.8763C23.3437 33.7639 23.3906 33.6393 23.3708 33.5221V33.5196ZM22.8845 33.5636C22.8622 33.588 22.8425 33.6003 22.8351 33.61H22.8326C22.798 33.6076 22.7808 33.6003 22.7808 33.6003C22.7783 33.5978 22.7684 33.5783 22.7659 33.5465C22.7734 33.505 22.7882 33.4854 22.7906 33.483C22.7931 33.483 22.803 33.4781 22.8227 33.4781C22.8351 33.4781 22.8721 33.4806 22.8919 33.5587C22.8919 33.5612 22.8894 33.5612 22.8894 33.5636H22.8845ZM34.676 21.086H34.6637C34.3427 21.086 34.1353 21.2912 34.1329 21.6112C34.1304 21.7797 34.1995 22.0777 34.6612 22.1632H34.7229C35.0414 22.0704 35.2093 21.8677 35.1994 21.5941C35.1896 21.2936 34.9797 21.0909 34.6785 21.0835L34.676 21.086Z" fill="#4491BA"/>
<path d="M35.4982 20.3385C35.4118 18.6285 34.9945 17.0139 34.2613 15.5311C32.254 11.4956 29.0321 9.02113 24.6769 8.17593C23.7609 7.99761 22.8474 7.90723 21.966 7.90723C19.1737 7.90723 16.5591 8.79151 14.2013 10.5332C10.7053 13.1128 8.88567 16.6841 8.79185 21.1592C8.79185 21.2667 8.78938 21.3766 8.78691 21.4817C8.77951 21.726 8.77457 22.0044 8.79926 22.2878C9.04368 24.7672 9.88312 26.9974 11.2953 28.9175C12.7347 30.879 14.6086 32.3618 16.8554 33.3242C18.3268 33.9544 19.8995 34.316 21.5512 34.3966C21.8401 34.8265 22.3092 35.083 22.8178 35.083C22.9536 35.083 23.0919 35.0659 23.2252 35.0293C23.872 34.846 24.3757 34.1938 24.3708 33.5392C24.3683 32.9065 23.9066 32.2958 23.2795 32.0882C23.1289 32.0393 22.9733 32.0124 22.8178 32.0124C22.3314 32.0124 21.8722 32.2518 21.5685 32.6671C20.2921 32.6256 18.9984 32.3422 17.7219 31.8219C15.6727 30.9914 13.9642 29.643 12.6434 27.8207C11.3719 26.0619 10.6559 24.0612 10.5176 21.8676C10.372 19.5128 10.9225 17.2899 12.1521 15.2624C13.3742 13.2544 15.0753 11.7326 17.2133 10.7384C18.749 10.0251 20.4007 9.66113 22.1216 9.66113C22.408 9.66113 22.7067 9.6709 23.0054 9.69289C24.5436 9.79793 26.0077 10.1937 27.3582 10.8679C29.4691 11.9207 31.1381 13.4987 32.3133 15.5555C33.1206 16.9723 33.6095 18.5723 33.7601 20.3214L33.765 20.3824C33.2144 20.744 32.9873 21.4084 33.2046 22.0777C33.407 22.7079 34.0045 23.1452 34.6588 23.1452H34.7032C35.3772 23.1281 35.9426 22.6713 36.15 21.9873C36.3352 21.3644 36.071 20.7 35.4957 20.3385H35.4982ZM22.2796 33.5172C22.3191 33.1996 22.524 33.0018 22.8203 33.0018C23.1067 33.0042 23.3239 33.2045 23.3733 33.5196C23.3906 33.6369 23.3462 33.7615 23.2499 33.8738C23.1363 34.0057 22.9758 34.0863 22.8277 34.0863C22.8153 34.0863 22.8005 34.0863 22.7882 34.0839C22.4796 34.0546 22.2993 33.8592 22.2796 33.5392V33.5147V33.5172ZM34.723 22.1632H34.6612C34.1971 22.0802 34.1304 21.7821 34.1329 21.6136C34.1354 21.2936 34.3427 21.0884 34.6637 21.0884H34.676C34.9797 21.0957 35.1871 21.2985 35.197 21.5989C35.2069 21.8725 35.039 22.0728 34.7205 22.1632H34.723Z" fill="#4491BA"/>
<path d="M31.3331 19.6691C30.8665 17.0627 29.5011 14.9742 27.2692 13.4596C25.7903 12.4532 23.9312 11.8987 22.0376 11.8987C20.1439 11.8987 18.3441 12.441 16.8899 13.423C14.3543 15.1403 12.9396 17.5317 12.6828 20.5339C12.6828 20.5363 12.6804 20.5388 12.6804 20.5412C12.1446 20.8588 11.9175 21.4841 12.1125 22.1046C12.2829 22.6518 12.8112 23.045 13.3741 23.0646H13.4309C14.0284 23.0646 14.5617 22.6786 14.7543 22.1021C14.9493 21.5281 14.7296 20.893 14.2358 20.5779C14.2383 20.573 14.2383 20.5705 14.2383 20.5656C14.5814 16.5033 17.9342 13.4425 22.04 13.4425C22.4968 13.4425 22.956 13.4841 23.4152 13.5622C27.168 14.2096 29.8912 17.4389 29.8912 21.2545C29.9011 21.66 29.8665 22.0924 29.7974 22.5052C29.1728 26.035 26.2076 28.6732 22.5783 28.9443C22.3141 28.5681 21.9166 28.3556 21.4697 28.3556C21.3265 28.3556 21.1833 28.38 21.0377 28.4216C20.4599 28.5877 20.055 29.1251 20.055 29.7285C20.055 30.3318 20.4624 30.8741 21.0722 31.05C21.2006 31.0866 21.3339 31.1037 21.4623 31.1037C21.9141 31.1037 22.3314 30.8766 22.6005 30.4808C24.03 30.3978 25.4027 30.002 26.6816 29.2985C30.0961 27.42 32.012 23.4628 31.3355 19.6716L31.3331 19.6691ZM21.4228 29.792C21.4228 29.792 21.4055 29.7822 21.3907 29.7651C21.3808 29.7553 21.3759 29.7431 21.3759 29.7431C21.3759 29.7431 21.3751 29.7439 21.3734 29.7456C21.3808 29.6698 21.3957 29.6698 21.4376 29.6698C21.4771 29.6698 21.4944 29.6747 21.4994 29.6747C21.4994 29.6772 21.5068 29.6918 21.5117 29.726C21.5068 29.7651 21.4994 29.7773 21.4253 29.7895L21.4228 29.792Z" fill="#1C1B1A"/>
<path d="M229.452 22.1364C232.871 19.9208 235.735 20.1015 237.997 22.5052C239.207 21.3254 240.648 20.5901 242.53 20.6072C245.475 20.6341 247.236 21.8603 247.401 24.4423C247.584 27.2515 247.453 30.0753 247.485 32.8943C247.497 34.0253 246.549 33.4854 245.994 33.5758C245.381 33.6735 244.885 33.6467 244.902 32.8332C244.962 30.3929 244.937 27.9477 244.92 25.5074C244.905 23.3944 244.102 22.5907 242.043 22.5614C239.863 22.5321 238.56 23.6118 238.52 25.5807C238.476 27.7865 238.498 29.9947 238.515 32.203C238.52 33.0164 238.686 33.698 237.189 33.6467C235.854 33.6003 235.928 33.0628 235.94 32.2616C235.972 29.9605 235.967 27.6594 235.945 25.3559C235.928 23.3699 235.012 22.5516 232.891 22.5565C230.731 22.5614 229.622 23.5092 229.615 25.3779C229.605 27.7743 229.556 30.1706 229.642 32.5645C229.677 33.5074 229.269 33.6393 228.353 33.6125C227.519 33.5856 226.98 33.6076 227.003 32.5987C227.079 29.0762 227.035 25.5538 227.032 22.0313C227.032 21.428 226.857 20.7733 228.012 20.8539C228.849 20.9125 229.835 20.6658 229.454 22.1388L229.452 22.1364Z" fill="#1C1B1A"/>
<path d="M129.572 23.8805C129.572 21.0762 129.606 18.2694 129.552 15.4651C129.535 14.5491 129.695 14.1241 130.757 14.1949C132.248 14.2951 133.751 14.1851 135.25 14.234C139.976 14.383 143.299 17.4731 143.664 22.1363C143.8 23.8683 143.822 25.6173 143.393 27.3443C142.484 30.9914 139.482 33.4488 135.67 33.5612C134.013 33.61 132.349 33.5245 130.695 33.6002C129.772 33.6418 129.535 33.3437 129.552 32.4546C129.606 29.5965 129.572 26.7385 129.572 23.8805ZM132.161 23.8805V28.7953C132.161 30.5639 133.052 31.4335 134.833 31.4042C138.351 31.3456 140.25 29.7504 140.906 26.3672C141.254 24.5742 141.208 22.7983 140.842 21.02C140.272 18.2572 138.358 16.5913 135.519 16.4227C134.722 16.3763 133.912 16.4594 133.117 16.3934C132.324 16.3274 132.129 16.6352 132.147 17.3803C132.191 19.547 132.161 21.7137 132.161 23.8805Z" fill="#1C1B1A"/>
<path d="M214.347 32.6305C214.347 34.3306 214.288 35.8867 214.369 37.4354C214.419 38.3759 213.796 38.3368 213.058 38.327C212.357 38.3172 211.735 38.454 211.745 37.4671C211.804 32.2909 211.774 27.1123 211.769 21.9336C211.769 21.4524 211.72 21.0029 212.557 21.0737C213.342 21.1373 214.406 20.8002 214.095 22.2365C215.12 21.6966 215.905 21.1617 216.9 20.9492C219.685 20.3556 222.29 21.4768 223.383 23.8121C224.181 25.5171 224.284 27.315 223.912 29.0811C222.986 33.4879 219.159 34.9535 214.345 32.628L214.347 32.6305ZM214.347 27.3614C214.347 27.9575 214.421 28.5608 214.332 29.1446C214.125 30.5175 214.902 31.3285 216.292 31.7755C217.769 32.2518 219.431 31.8488 220.359 30.8643C221.867 29.2668 221.899 25.4976 220.418 23.8536C219.507 22.8423 217.843 22.4051 216.384 22.857C214.922 23.3089 214.125 24.1541 214.332 25.5758C214.419 26.162 214.347 26.7654 214.347 27.359V27.3614Z" fill="#1C1B1A"/>
<path d="M49.213 32.589C49.213 34.3087 49.1389 35.8598 49.2377 37.4061C49.3068 38.4614 48.5686 38.2904 47.8205 38.3392C46.9441 38.3954 46.6256 38.1731 46.633 37.3621C46.6774 32.3667 46.6379 27.3712 46.6848 22.3733C46.6898 21.958 46.117 21.1617 47.2403 21.1006C48.0872 21.0542 49.1735 20.7757 49.1686 22.1364C50.2129 21.533 51.1437 21.0078 52.2794 20.8686C55.1557 20.5168 57.5506 21.7846 58.4542 24.2176C59.101 25.9544 59.1455 27.762 58.6961 29.516C57.6444 33.6198 53.7904 34.9169 49.2081 32.5938L49.213 32.589ZM49.213 27.3028C49.213 27.8988 49.292 28.5022 49.1982 29.0885C48.9686 30.5321 49.8352 31.3578 51.2647 31.8024C52.7806 32.2738 54.4101 31.8268 55.3113 30.8131C56.7704 29.1715 56.7408 25.3755 55.2545 23.7901C54.3237 22.7959 52.6498 22.4026 51.1906 22.8985C49.8327 23.3602 49.0007 24.1394 49.1982 25.5171C49.2821 26.1034 49.213 26.7068 49.213 27.3028Z" fill="#1C1B1A"/>
<path d="M109.916 22.0435C111.373 20.9614 112.751 20.5143 114.385 20.5901C116.832 20.7024 118.575 22.046 118.632 24.1785C118.708 26.9926 118.612 29.8115 118.696 32.6256C118.728 33.6833 118.052 33.5612 117.281 33.6002C116.412 33.6442 116.044 33.4366 116.064 32.5987C116.121 30.1584 116.094 27.7181 116.079 25.2777C116.067 23.4041 115.195 22.5785 113.291 22.5858C111.277 22.5931 109.931 23.7046 109.921 25.4023C109.909 27.7498 109.87 30.0973 109.941 32.4424C109.971 33.395 109.583 33.6173 108.561 33.6198C107.504 33.6198 107.067 33.439 107.08 32.396C107.139 27.1416 107.141 19.442 107.08 14.1851C107.067 13.1445 107.596 13.081 108.519 13.0737C109.472 13.0639 110 13.1885 109.944 14.2047C109.85 15.8877 109.919 20.0209 109.919 22.0508L109.916 22.0435Z" fill="#4491BA"/>
<path d="M181.708 27.9697C180.53 27.9697 179.35 28.021 178.177 27.955C177.113 27.894 176.79 28.1065 177.069 29.0836C177.876 31.8928 181.503 32.9505 184.08 30.9938C184.885 30.3831 185.362 30.4027 186.019 31.0085C186.836 31.7633 185.848 32.0491 185.463 32.3618C182.389 34.8656 176.896 34.0277 175.113 30.73C173.746 28.1993 173.958 25.632 175.637 23.2405C176.938 21.384 179.589 20.4777 182.024 20.9028C184.406 21.318 185.986 22.8032 186.463 25.0774C186.868 27.0056 185.925 27.9697 183.634 27.9697C182.992 27.9697 182.35 27.9697 181.708 27.9697ZM180.476 26.0985C181.434 26.0985 182.394 26.0814 183.352 26.1058C183.964 26.1205 184.167 25.9984 184.056 25.4072C183.782 23.9416 182.792 22.9009 181.35 22.7299C179.565 22.5174 178.232 23.1428 177.476 24.54C176.76 25.8689 176.918 26.0961 178.557 26.101C179.197 26.101 179.836 26.101 180.476 26.101V26.0985Z" fill="#1C1B1A"/>
<path d="M257.862 27.9697C256.738 27.9697 255.603 28.0601 254.494 27.9477C252.966 27.7938 252.978 28.4143 253.307 29.3596C254.218 31.966 257.805 32.8601 260.252 30.9865C261.064 30.3636 261.548 30.4149 262.187 31.0134C262.99 31.7657 262.007 32.0515 261.619 32.3666C258.538 34.8656 253.047 34.0228 251.272 30.7227C249.909 28.192 250.122 25.6246 251.805 23.2331C253.112 21.3791 255.766 20.4753 258.195 20.9052C260.578 21.3253 262.148 22.8057 262.627 25.0872C263.03 27.0088 262.137 27.9697 259.948 27.9697C259.252 27.9697 258.558 27.9697 257.862 27.9697ZM256.667 26.0985C257.625 26.0985 258.585 26.0765 259.543 26.1058C260.205 26.1254 260.316 25.9348 260.21 25.3828C259.923 23.9025 258.938 22.8887 257.484 22.7251C255.632 22.5174 254.331 23.1867 253.571 24.689C253.102 25.6173 252.976 26.2768 254.59 26.1107C255.274 26.0399 255.973 26.0985 256.667 26.0985Z" fill="#1C1B1A"/>
<path d="M153.809 27.9697C152.631 27.9697 151.444 28.0503 150.278 27.9477C149 27.8353 148.992 28.3849 149.2 29.1569C149.918 31.8415 153.579 32.8283 156.192 31.0647C156.574 30.8082 156.791 30.134 157.609 30.6225C158.433 31.1135 158.675 31.4677 157.875 32.1859C154.718 35.0244 148.563 33.9789 146.965 30.2561C146.207 28.49 146.222 26.6555 146.886 24.8551C147.921 22.0484 150.632 20.5021 153.816 20.8588C156.636 21.1739 158.517 23.1281 158.784 26.0179C158.904 27.3158 158.209 27.9648 156.698 27.9648C155.735 27.9648 154.769 27.9648 153.807 27.9648L153.809 27.9697ZM152.626 26.0985C153.587 26.0985 154.55 26.0716 155.51 26.1083C156.211 26.1352 156.288 25.8591 156.199 25.3584C155.95 23.9318 154.848 22.8741 153.407 22.7226C151.562 22.5296 150.234 23.2258 149.498 24.7183C149.034 25.6613 148.953 26.2964 150.545 26.1132C151.227 26.035 151.933 26.101 152.626 26.0985Z" fill="#1C1B1A"/>
<path d="M80.0079 27.9941C80.2992 28.5852 80.4943 28.9517 80.6597 29.3254C81.9386 32.2103 84.8149 32.9334 87.5455 30.9181C88.422 30.2707 88.8541 30.454 89.5058 30.9865C90.3576 31.6827 89.4145 31.9709 89.059 32.264C87.0048 33.9544 84.5112 34.2036 81.9559 33.4366C79.4104 32.672 78.0377 30.9743 77.8353 28.6585C77.6871 26.9657 77.6748 25.2851 78.6796 23.7095C80.0918 21.4939 82.9188 20.3311 85.6938 20.9027C88.222 21.423 89.9626 23.4041 90.0441 25.9055C90.1206 28.2897 90.523 27.9721 87.6245 27.9892C85.1655 28.0039 82.7064 27.9916 80.0128 27.9916L80.0079 27.9941ZM80.5264 26.0667C82.6126 26.0667 84.6766 26.0594 86.7382 26.0716C87.2888 26.0741 87.4789 25.886 87.4591 25.417C87.3949 24.0197 86.0222 22.8105 84.4051 22.7641C82.1608 22.7006 81.0448 23.6215 80.5264 26.0667Z" fill="#4491BA"/>
<path d="M208.656 27.3126C208.656 31.9587 204.706 34.7728 199.963 33.5025C196.726 32.6353 194.902 29.5623 195.502 25.9861C196.023 22.8838 198.613 20.8441 202.039 20.8343C206.056 20.8246 208.654 23.3675 208.656 27.3126ZM206.076 27.3468C206.153 26.46 206.014 25.6051 205.602 24.7892C204.869 23.3357 203.605 22.6298 201.859 22.6811C200.244 22.7299 198.995 23.5165 198.445 24.9748C197.783 26.7287 197.729 28.5022 198.726 30.1901C199.408 31.3456 200.523 31.9416 202.089 31.9343C203.657 31.9245 204.723 31.304 205.409 30.1413C205.928 29.2643 206.138 28.3263 206.074 27.3468H206.076Z" fill="#1C1B1A"/>
<path d="M268.024 22.3806C269.858 20.8197 271.685 20.3336 273.744 20.7098C275.742 21.0762 276.976 22.3977 277.038 24.3764C277.124 27.1929 277.035 30.0143 277.105 32.8308C277.129 33.803 276.44 33.5734 275.85 33.5831C275.184 33.5929 274.475 33.7761 274.507 32.7453C274.584 30.305 274.544 27.8597 274.527 25.417C274.515 23.3431 273.754 22.5712 271.769 22.5565C269.639 22.5418 268.207 23.729 268.197 25.5489C268.184 27.8964 268.13 30.2488 268.224 32.5938C268.263 33.5929 267.737 33.5929 266.893 33.61C265.985 33.6271 265.562 33.5123 265.582 32.5596C265.654 29.1324 265.59 25.7028 265.634 22.2731C265.641 21.7479 265.101 20.8563 266.471 20.8563C267.446 20.8563 268.461 20.7147 268.026 22.3806H268.024Z" fill="#1C1B1A"/>
<path d="M66.9276 24.9333C66.9276 22.5003 66.8807 20.0673 66.9498 17.6368C66.977 16.645 66.6535 15.8511 65.6758 15.9097C64.3969 15.9855 63.1081 15.878 61.8292 15.9439C60.9182 15.9903 60.7898 15.5678 60.7849 14.8081C60.7799 14.0288 60.9602 13.6771 61.8465 13.6844C66.1918 13.7235 70.4952 13.721 74.838 13.6844C75.6799 13.6771 75.9317 13.9482 75.9416 14.7714C75.954 15.6581 75.6898 15.9952 74.7664 15.9439C73.5393 15.878 72.3024 15.9977 71.0803 15.9073C69.9792 15.8267 69.7545 16.7574 69.7644 17.754C69.8088 22.5125 69.757 27.2735 69.8039 32.032C69.8137 33.1019 69.7002 33.6442 68.3744 33.6296C67.1152 33.6173 66.8634 33.2045 66.9029 32.0711C66.9844 29.6943 66.9276 27.3126 66.9276 24.9333Z" fill="#4491BA"/>
<path d="M92.2859 27.4543C92.2859 23.8878 93.7771 21.8212 96.7867 21.0225C99.942 20.1846 103.137 21.3767 104.24 23.8048C104.517 24.413 104.89 25.1629 103.919 25.4341C103.147 25.6515 102.253 25.7932 101.846 24.6109C101.149 22.5883 98.1841 22.0313 96.3596 23.4359C94.3548 24.9797 94.3153 29.5868 96.2954 31.1599C98.0187 32.5303 100.925 32.1395 101.836 30.2561C102.411 29.0665 103.445 29.3132 104.166 29.5721C104.974 29.8628 104.401 30.6299 104.1 31.1184C102.86 33.1239 100.759 33.8348 98.2533 33.7737C95.7819 33.7151 94.0363 32.6134 92.9772 30.7373C92.3624 29.6503 92.16 28.4729 92.2859 27.4543Z" fill="#4491BA"/>
<path d="M172.516 21.0347C170.904 24.9968 169.287 28.9541 167.689 32.9187C167.482 33.4366 167.156 33.6858 166.526 33.5856C166.052 33.5099 165.492 33.7908 165.215 33.1093C163.583 29.0665 161.902 25.0384 160.226 20.9712C161.9 20.8213 162.981 21.3856 163.47 22.664C164.411 25.1458 165.346 27.6277 166.329 30.2317C167.114 29.2253 167.262 28.1138 167.682 27.1049C168.284 25.6564 168.904 24.1981 169.277 22.6982C169.672 21.1055 170.501 20.4069 172.516 21.0322V21.0347Z" fill="#1C1B1A"/>
<path d="M281.598 26.2744C281.598 25.3217 281.554 23.1477 281.608 22.1974C281.689 20.8099 281.766 18.8069 279.68 19.2001C278.783 19.3687 279.053 18.6017 278.998 18.1302C278.929 17.5586 279.099 17.1507 279.761 17.2948C281.628 17.7052 281.759 16.6157 281.593 15.2648C281.475 14.2926 281.615 13.7674 282.884 13.7577C284.188 13.7479 284.26 14.3268 284.148 15.2673C283.99 16.6206 284.114 17.7027 285.983 17.2972C286.778 17.1238 286.938 17.5781 286.956 18.2963C286.975 19.1293 286.58 19.3394 285.889 19.2124C284.366 18.9339 284.05 20.3556 284.119 21.7357C284.232 24.0051 284.151 27.5031 284.148 29.7773C284.148 31.0305 284.6 31.8292 286.047 31.6802C286.521 31.6314 287.052 31.5263 286.995 32.3129C286.951 32.9163 287.165 33.5392 286.247 33.7957C283.805 34.4748 281.8 33.0726 281.625 30.4002C281.536 29.0298 281.61 27.6521 281.61 26.2768C281.605 26.2768 281.601 26.2768 281.596 26.2768L281.598 26.2744Z" fill="#1C1B1A"/>
<path d="M192.208 23.4286C192.208 26.443 192.149 29.4573 192.238 32.4693C192.272 33.61 191.722 33.5685 190.895 33.6051C189.959 33.6467 189.618 33.4561 189.628 32.4204C189.685 26.3941 189.692 20.3653 189.626 14.3366C189.613 13.2129 190.11 13.2251 190.947 13.2032C191.863 13.1763 192.265 13.3351 192.235 14.3903C192.154 17.4023 192.208 20.4166 192.208 23.431V23.4286Z" fill="#1C1B1A"/>
</g>
<defs>
<clipPath id="clip0_53_713">
<rect width="287" height="43" fill="white"/>
</clipPath>
</defs>
</svg>
