<svg width="18" height="17" viewBox="0 0 18 17" fill="none" xmlns="http://www.w3.org/2000/svg">
<path d="M17.6026 10.4842V16.857H13.908V10.9109C13.908 9.41679 13.3734 8.3977 12.0365 8.3977C11.0157 8.3977 10.4077 9.08515 10.1408 9.74929C10.0432 9.98679 10.0182 10.3176 10.0182 10.6501V16.857H6.32184C6.32184 16.857 6.37193 6.78701 6.32184 5.74288H10.0182V7.31815L9.99401 7.35442H10.0182V7.31815C10.5087 6.56247 11.3853 5.48206 13.3484 5.48206C15.7795 5.48206 17.6026 7.07115 17.6026 10.4842ZM2.45621 0.385742C1.19271 0.385742 0.365345 1.21483 0.365345 2.30561C0.365345 3.3722 1.16853 4.22633 2.40784 4.22633H2.43202C3.72143 4.22633 4.52202 3.3722 4.52202 2.30561C4.49957 1.21483 3.72143 0.385742 2.45621 0.385742ZM0.584708 16.857H4.27934V5.74288H0.584708V16.857Z" fill="white"/>
</svg>
