<svg width="22" height="19" viewBox="0 0 22 19" fill="none" xmlns="http://www.w3.org/2000/svg">
<path d="M21.9324 2.72714C21.1274 3.09305 20.2597 3.3335 19.3606 3.4485C20.2806 2.89441 20.9915 2.01623 21.3261 0.960321C20.4583 1.48305 19.4965 1.84896 18.4824 2.05805C17.6565 1.15896 16.4961 0.63623 15.1788 0.63623C12.722 0.63623 10.7147 2.6435 10.7147 5.12123C10.7147 5.47669 10.7565 5.82169 10.8297 6.14578C7.10791 5.9576 3.79382 4.16987 1.58791 1.46214C1.2011 2.12078 0.981551 2.89441 0.981551 3.70987C0.981551 5.26759 1.76564 6.6476 2.97837 7.43169C2.2361 7.43169 1.5461 7.2226 0.939733 6.90896V6.94032C0.939733 9.11487 2.487 10.934 4.53609 11.3417C3.87822 11.5217 3.18756 11.5468 2.51837 11.4149C2.80232 12.3061 3.35843 13.0859 4.10852 13.6448C4.85861 14.2036 5.76497 14.5133 6.70018 14.5303C5.11489 15.7853 3.14982 16.4637 1.12791 16.454C0.77246 16.454 0.417006 16.4331 0.061552 16.3912C2.04791 17.6667 4.41064 18.409 6.94064 18.409C15.1788 18.409 19.7056 11.5717 19.7056 5.64396C19.7056 5.44532 19.7056 5.25714 19.6952 5.0585C20.5733 4.43123 21.3261 3.63669 21.9324 2.72714Z" fill="white"/>
</svg>
